HIERARCHY
ROOT Hips
{
	OFFSET 0.000000 89.005402 0.000000
	CHANNELS 6 Xposition Yposition Zposition Xrotation Yrotation Zrotation
	JOINT Spine
	{
		OFFSET 0.116900 10.681000 0.373400
		CHANNELS 3 Xrotation Yrotation Zrotation
		JOINT Spine1
		{
			OFFSET 0.000000 13.840401 0.053500
			CHANNELS 3 Xrotation Yrotation Zrotation
			JOINT Spine2
			{
				OFFSET 0.000000 14.712700 -0.366200
				CHANNELS 3 Xrotation Yrotation Zrotation
				JOINT Neck
				{
					OFFSET 0.000000 35.415497 -3.314200
					CHANNELS 3 Xrotation Yrotation Zrotation
					JOINT Head
					{
						OFFSET 0.000000 16.899200 1.218300
						CHANNELS 3 Xrotation Yrotation Zrotation
						JOINT HeadTop_End
						{
							OFFSET 0.000000 22.206207 2.192500
							CHANNELS 3 Xrotation Yrotation Zrotation
							End Site
							{
								OFFSET 0.000000 22.314178 0.000000
							}
						}
					}
				}
				JOINT LeftShoulder
				{
					OFFSET 12.896400 26.716293 -4.548400
					CHANNELS 3 Xrotation Yrotation Zrotation
					JOINT LeftArm
					{
						OFFSET 19.027000 -4.857010 -1.718400
						CHANNELS 3 Xrotation Yrotation Zrotation
						JOINT LeftForeArm
						{
							OFFSET 24.179897 0.000000 0.000000
							CHANNELS 3 Xrotation Yrotation Zrotation
							JOINT LeftHand
							{
								OFFSET 27.156403 0.000000 0.000000
								CHANNELS 3 Xrotation Yrotation Zrotation
								JOINT LeftHandIndex1
								{
									OFFSET 16.441200 0.000000 0.000000
									CHANNELS 3 Xrotation Yrotation Zrotation
									JOINT LeftHandIndex2
									{
										OFFSET 4.821899 0.000000 0.000000
										CHANNELS 3 Xrotation Yrotation Zrotation
										JOINT LeftHandIndex3
										{
											OFFSET 6.386497 0.000000 0.000000
											CHANNELS 3 Xrotation Yrotation Zrotation
											JOINT LeftHandIndex4
											{
												OFFSET 5.188988 0.000000 0.000000
												CHANNELS 3 Xrotation Yrotation Zrotation
												End Site
												{
													OFFSET -0.178703 5.185913 0.000177
												}
											}
										}
									}
								}
								JOINT LeftHandThumb1
								{
									OFFSET 6.534897 -5.032593 5.900300
									CHANNELS 3 Xrotation Yrotation Zrotation
									JOINT LeftHandThumb2
									{
										OFFSET 3.818176 -2.204422 2.204423
										CHANNELS 3 Xrotation Yrotation Zrotation
										JOINT LeftHandThumb3
										{
											OFFSET 3.252098 -1.877594 1.877601
											CHANNELS 3 Xrotation Yrotation Zrotation
											JOINT LeftHandThumb4
											{
												OFFSET 5.251778 -3.032120 3.032117
												CHANNELS 3 Xrotation Yrotation Zrotation
												End Site
												{
													OFFSET 0.000023 6.780014 0.000000
												}
											}
										}
									}
								}
							}
						}
					}
				}
				JOINT RightShoulder
				{
					OFFSET -12.896300 26.716293 -4.548400
					CHANNELS 3 Xrotation Yrotation Zrotation
					JOINT RightArm
					{
						OFFSET -19.027000 -4.857010 -1.718400
						CHANNELS 3 Xrotation Yrotation Zrotation
						JOINT RightForeArm
						{
							OFFSET -24.179897 0.000000 0.000000
							CHANNELS 3 Xrotation Yrotation Zrotation
							JOINT RightHand
							{
								OFFSET -27.156403 0.000000 0.000000
								CHANNELS 3 Xrotation Yrotation Zrotation
								JOINT RightHandThumb1
								{
									OFFSET -6.591202 -4.852203 5.988100
									CHANNELS 3 Xrotation Yrotation Zrotation
									JOINT RightHandThumb2
									{
										OFFSET -3.818176 -2.204422 2.204423
										CHANNELS 3 Xrotation Yrotation Zrotation
										JOINT RightHandThumb3
										{
											OFFSET -3.252098 -1.877594 1.877601
											CHANNELS 3 Xrotation Yrotation Zrotation
											JOINT RightHandThumb4
											{
												OFFSET -5.251778 -3.032120 3.032117
												CHANNELS 3 Xrotation Yrotation Zrotation
												End Site
												{
													OFFSET -0.000023 6.780014 0.000000
												}
											}
										}
									}
								}
								JOINT RightHandIndex1
								{
									OFFSET -16.029404 0.000000 0.000000
									CHANNELS 3 Xrotation Yrotation Zrotation
									JOINT RightHandIndex2
									{
										OFFSET -5.213303 0.000000 0.000000
										CHANNELS 3 Xrotation Yrotation Zrotation
										JOINT RightHandIndex3
										{
											OFFSET -6.386528 0.000000 0.000000
											CHANNELS 3 Xrotation Yrotation Zrotation
											JOINT RightHandIndex4
											{
												OFFSET -5.189026 0.000000 0.000000
												CHANNELS 3 Xrotation Yrotation Zrotation
												End Site
												{
													OFFSET 0.236702 5.183624 0.001972
												}
											}
										}
									}
								}
							}
						}
					}
				}
			}
		}
	}
	JOINT LeftUpLeg
	{
		OFFSET 14.073000 -7.904099 -1.463000
		CHANNELS 3 Xrotation Yrotation Zrotation
		JOINT LeftLeg
		{
			OFFSET -0.109806 -34.073280 4.093200
			CHANNELS 3 Xrotation Yrotation Zrotation
			JOINT LeftFoot
			{
				OFFSET 0.109806 -29.899420 -6.319000
				CHANNELS 3 Xrotation Yrotation Zrotation
				JOINT LeftToeBase
				{
					OFFSET 1.551100 -14.988700 20.535801
					CHANNELS 3 Xrotation Yrotation Zrotation
					JOINT LeftToe_End
					{
						OFFSET 0.221200 0.570800 13.248301
						CHANNELS 3 Xrotation Yrotation Zrotation
						End Site
						{
							OFFSET 0.000000 13.262435 0.000000
						}
					}
				}
			}
		}
	}
	JOINT RightUpLeg
	{
		OFFSET -13.839300 -7.904099 -1.463000
		CHANNELS 3 Xrotation Yrotation Zrotation
		JOINT RightLeg
		{
			OFFSET 0.109694 -34.073219 4.093300
			CHANNELS 3 Xrotation Yrotation Zrotation
			JOINT RightFoot
			{
				OFFSET -0.109694 -29.899384 -6.319200
				CHANNELS 3 Xrotation Yrotation Zrotation
				JOINT RightToeBase
				{
					OFFSET -1.551100 -14.988700 20.535801
					CHANNELS 3 Xrotation Yrotation Zrotation
					JOINT RightToe_End
					{
						OFFSET -0.221200 0.570900 13.248299
						CHANNELS 3 Xrotation Yrotation Zrotation
						End Site
						{
							OFFSET 0.000000 13.262440 0.000000
						}
					}
				}
			}
		}
	}
}
MOTION
Frames: 9
Frame Time: 0.033333
-0.426197 83.903900 1.034595 -3.549654 -12.033029 1.732770 7.350230 -3.125784 -1.951076 0.903038 -0.786809 -0.381202 0.907359 -0.781186 -0.383849 0.540563 1.888894 0.276506 -14.331921 18.862682 4.655270 0.000000 0.000000 0.000000 0.742836 8.952361 -13.053727 10.737607 -6.254788 -54.002604 -0.000016 -32.994260 -0.000018 3.018195 -1.471481 -4.081447 0.357468 4.214062 -15.544071 4.742592 5.745457 -79.060853 0.198056 -1.511917 14.925350 -0.000001 0.000001 -0.000001 -4.537345 1.706686 18.601371 16.708615 28.024584 -7.986392 -9.296465 22.680401 4.749139 0.000002 -0.000002 -0.000000 1.075651 -8.353347 11.371673 3.407871 18.890953 61.317292 -0.000005 23.538782 0.000013 1.182687 -2.960229 -1.406665 -4.704648 7.165785 -8.305808 21.727054 -40.854759 0.039784 0.960881 -3.700224 -18.695770 0.000003 0.000000 -0.000001 0.846636 -4.906160 30.449636 2.055555 -3.864077 56.009938 -0.000001 0.001223 -0.015023 -0.000000 -0.000001 0.000002 -10.375856 10.738749 3.784163 29.701412 -3.326814 -4.116246 -14.883093 -0.286936 1.594883 -1.617864 0.000000 -0.000001 0.000000 -0.000000 -0.000000 -15.947279 -10.535939 -5.702169 34.390942 9.612182 2.705907 -14.544446 3.725443 -5.814298 -0.820124 -0.000002 -0.000002 -0.000000 -0.000000 -0.000000 
-0.178448 83.625824 1.078061 -3.636663 -12.204757 1.725065 7.563188 -3.181183 -1.993199 0.965193 -0.800263 -0.382363 0.969765 -0.792907 -0.382152 0.491047 1.888876 0.318980 -16.472485 18.793462 4.902902 0.000001 -0.000000 -0.000000 0.752105 9.053512 -13.098070 9.354975 -4.662346 -53.950660 -0.000004 -34.499091 0.000003 3.341696 -1.953781 -3.490418 0.399079 4.334436 -16.788263 4.650159 5.726913 -78.136039 0.135603 -1.254442 12.338362 -0.000002 0.000002 -0.000001 -5.572258 1.558049 17.868004 16.242572 28.703511 -7.804417 -8.903769 22.600958 5.212177 0.000000 -0.000001 0.000004 1.107746 -8.421393 11.493003 3.501961 18.655617 60.458171 -0.000002 25.968572 0.000000 -0.010264 -3.504093 -0.801579 -5.051336 7.074525 -8.154659 21.475033 -40.903664 0.032320 0.999186 -4.034928 -18.668464 -0.000003 0.000001 0.000002 0.856189 -4.920119 30.657400 2.055554 -3.864077 56.009942 0.000298 -0.052764 0.647728 0.000000 -0.000000 -0.000002 -10.743227 10.779670 3.647991 30.892990 -3.187327 -4.113792 -15.612202 -0.323747 1.791212 -1.617864 -0.000000 0.000000 -0.000000 -0.000000 -0.000000 -16.471431 -10.388751 -6.091851 35.511834 9.307496 2.707347 -15.080311 4.252641 -5.548088 -0.840212 -0.000004 0.000001 -0.000000 -0.000001 0.000000 
0.105969 83.340820 1.048202 -3.492535 -12.493535 1.754184 7.730523 -3.200183 -2.056077 1.024649 -0.803365 -0.382775 1.029163 -0.796897 -0.375800 0.383309 1.907511 0.372381 -19.450728 18.858772 5.219188 0.000000 0.000000 0.000000 0.733778 9.102392 -12.993056 7.050748 -2.162668 -53.771371 -0.000011 -37.473157 -0.000017 4.851955 -1.929999 -1.229706 0.521684 4.648071 -20.078830 4.407372 5.670750 -75.691514 0.027042 -0.562887 5.501394 -0.000002 -0.000000 0.000000 -8.291910 1.248196 15.888881 14.980729 30.491737 -7.261878 -7.843596 22.426147 6.429824 -0.000001 -0.000001 -0.000000 1.100642 -8.435895 11.438335 2.889749 17.962228 59.188042 -0.000005 29.793862 0.000014 -1.464592 -4.285909 -1.134313 -6.021163 6.816202 -7.732998 20.769115 -41.048481 0.009606 1.105942 -4.972750 -18.591206 0.000001 0.000001 -0.000002 0.883226 -4.959035 31.239509 2.055555 -3.864077 56.009935 0.004458 -0.203945 2.504370 0.000000 0.000000 0.000001 -11.408362 10.834144 3.499004 32.088942 -2.922017 -4.112176 -16.274239 -0.358325 1.976430 -1.617863 0.000003 -0.000001 -0.000000 0.000000 -0.000000 -17.353190 -10.199143 -6.542431 36.613444 8.570467 2.714750 -15.460389 5.303280 -5.101721 -0.881212 -0.000009 -0.000001 -0.000000 -0.000000 0.000000 
0.436654 83.131989 0.934030 -2.962726 -13.355150 1.951485 7.699659 -2.997134 -2.224554 1.018966 -0.741002 -0.376565 1.022935 -0.735839 -0.367835 0.267851 1.957721 0.425835 -22.911555 19.241732 5.725000 -0.000001 0.000000 0.000000 0.709968 9.110415 -12.860610 3.924506 1.037095 -53.082711 0.000004 -41.626878 -0.000001 9.475464 -1.957843 3.413188 0.727255 5.081793 -24.772642 4.066027 5.573044 -72.208275 0.016076 0.434191 -4.240828 0.000001 -0.000001 0.000004 -12.120034 1.019879 12.979369 13.097675 33.019156 -6.327172 -6.280133 22.266157 8.147267 0.000000 -0.000000 -0.000001 1.049962 -8.443923 11.184232 1.277055 17.353926 57.429726 -0.000015 34.411641 0.000025 -1.330755 -4.899744 -3.129718 -7.512426 6.410118 -7.087911 19.677801 -41.279420 -0.031161 1.268395 -6.419356 -18.469988 -0.000000 0.000002 -0.000001 0.925689 -5.018495 32.137071 2.055554 -3.864076 56.009945 0.020459 -0.436560 5.366967 0.000001 0.000000 0.000002 -12.191624 10.941470 3.177885 32.836561 -2.072738 -4.111568 -16.708514 -0.353991 1.995274 -1.617874 0.000003 0.000001 -0.000000 0.000000 -0.000000 -18.803524 -9.949610 -7.073234 37.450238 8.141715 2.728854 -15.371838 6.589531 -4.739357 -0.931152 0.000004 0.000002 0.000000 -0.000000 -0.000000 
0.773384 83.087204 0.767404 -2.415145 -14.900940 2.051646 7.734304 -2.528018 -2.242464 0.994021 -0.609256 -0.357091 0.997024 -0.605009 -0.350530 0.104597 2.039342 0.469539 -26.716282 20.000355 6.509251 0.000001 0.000000 -0.000000 0.687980 9.216240 -12.732549 -0.255347 4.714406 -51.426229 0.000002 -47.481126 -0.000000 11.882912 -1.444286 5.277805 1.009765 5.562134 -30.225865 3.678347 5.433989 -68.167501 0.214884 1.573679 -15.550568 0.000001 -0.000001 0.000002 -16.474237 1.077405 9.498845 10.764345 35.910488 -4.985911 -4.393790 22.213334 10.109745 0.000000 -0.000001 0.000002 0.984269 -8.362284 10.878137 -1.486878 16.922328 55.133133 -0.000005 39.735315 0.000000 1.630022 -4.870482 -6.278301 -9.422593 5.874203 -6.267367 18.268992 -41.589770 -0.094493 1.472849 -8.280540 -18.310544 0.000002 -0.000001 -0.000003 0.981644 -5.093961 33.291308 2.055553 -3.864077 56.009938 0.058066 -0.733954 9.047771 0.000001 -0.000001 0.000000 -12.610444 11.015823 2.922727 33.012398 -0.529555 -4.114176 -16.941267 -0.288074 1.731121 -1.617867 0.000001 -0.000000 -0.000000 0.000000 -0.000000 -20.134930 -9.793281 -7.329987 37.528464 8.478894 2.739355 -14.595069 7.761633 -4.681977 -0.975941 0.000008 0.000003 -0.000000 0.000001 0.000000 
1.079489 83.251915 0.598812 -2.032919 -16.706165 1.867156 7.856382 -1.929428 -1.859744 0.941602 -0.454208 -0.287797 0.943440 -0.450062 -0.283930 -0.083764 2.137545 0.477375 -30.087823 21.096165 7.166184 0.000000 -0.000001 -0.000000 0.668165 9.443338 -12.611415 -4.924237 7.778791 -49.165559 -0.000007 -53.168617 -0.000014 14.028380 -0.535492 8.623407 1.343957 6.022027 -35.792725 3.294300 5.264624 -64.049812 0.643967 2.672214 -27.093764 -0.000001 -0.000001 0.000000 -20.790818 1.498421 5.869637 8.188251 38.796899 -3.306997 -2.397680 22.307715 12.070936 0.000001 -0.000001 0.000003 0.877781 -8.150463 10.397953 -5.448071 16.903856 52.965221 0.000015 44.786776 -0.000022 3.919582 -4.977272 -10.422853 -11.649204 5.227034 -5.319267 16.610262 -41.972004 -0.185488 1.706393 -10.461994 -18.119001 -0.000000 -0.000001 0.000000 1.049128 -5.180901 34.643334 2.055556 -3.864076 56.009942 0.126294 -1.078308 13.359164 0.000001 0.000001 0.000002 -12.569665 10.994246 2.930708 32.612671 1.293757 -4.119855 -16.918206 -0.185150 1.298445 -1.617871 0.000006 -0.000001 -0.000000 0.000000 -0.000000 -20.797738 -9.845356 -7.073897 36.554172 9.552551 2.742859 -13.192940 8.400522 -4.901621 -1.000259 0.000009 0.000000 -0.000000 -0.000001 -0.000000 
1.152257 83.492065 0.428779 -1.940317 -18.079140 1.615658 8.016491 -1.500245 -1.449569 0.895261 -0.348436 -0.189263 0.896238 -0.344631 -0.187050 -0.224756 2.214484 0.498486 -33.018507 21.981437 7.612154 -0.000001 0.000000 0.000000 0.645493 9.656874 -12.477845 -9.942442 10.401978 -46.573103 -0.000019 -57.858614 -0.000029 16.687435 0.118158 13.875388 1.683143 6.407701 -40.824085 2.959012 5.088521 -60.334954 1.213969 3.572151 -37.530148 -0.000003 0.000002 -0.000000 -24.557967 2.193111 2.552794 5.659060 41.333672 -1.492971 -0.538100 22.521833 13.801331 0.000000 0.000000 0.000004 0.769996 -7.775574 9.953860 -10.206267 16.731672 51.349304 -0.000009 49.402389 0.000008 5.104345 -5.281556 -11.976470 -14.090825 4.489409 -4.290044 14.769169 -42.416301 -0.308865 1.957010 -12.869224 -17.902315 0.000001 -0.000001 0.000001 1.125890 -5.274880 36.134327 2.055554 -3.864076 56.009942 0.231275 -1.450816 18.113737 0.000004 0.000000 0.000001 -12.184120 10.912055 3.137498 31.910364 2.664558 -4.152171 -16.658104 -0.079946 0.840531 -1.617868 0.000001 -0.000000 -0.000000 -0.000000 -0.000000 -21.050752 -9.726743 -7.365945 37.931244 9.556294 2.626088 -12.657415 7.814553 -4.654173 -5.212942 0.000002 -0.000000 -0.000000 -0.000000 -0.000000 
0.987973 83.798294 0.209429 -1.949549 -18.717848 1.620104 8.170248 -1.136771 -1.324686 0.862997 -0.253677 -0.142356 0.863613 -0.250153 -0.141549 -0.377373 2.233722 0.520415 -36.033841 22.126400 8.036652 0.000001 0.000000 0.000000 0.612188 9.655003 -12.297102 -15.840903 12.951075 -44.175696 0.000013 -61.636331 0.000005 18.532721 0.145716 17.985119 1.964359 6.681259 -44.667603 2.711310 4.939773 -57.501539 1.754145 4.180911 -45.507078 0.000000 -0.000001 0.000001 -27.337233 2.921790 0.011017 3.578252 43.215505 0.100142 0.914908 22.767348 15.093016 -0.000002 -0.000001 0.000002 0.697502 -7.559914 9.632194 -15.650825 16.041367 50.589876 0.000000 53.684542 -0.000004 7.299405 -5.122648 -13.981535 -16.647625 3.685386 -3.224140 12.814188 -42.909369 -0.467453 2.213841 -15.407401 -17.668364 0.000002 -0.000000 0.000000 1.209411 -5.371685 37.705342 2.055552 -3.864072 56.009942 0.374893 -1.832398 23.124015 0.000004 0.000000 0.000000 -11.602524 10.867704 3.230394 30.649429 3.299749 -4.203043 -15.895459 -0.005445 0.513887 -1.617869 -0.000000 -0.000000 -0.000000 -0.000000 -0.000000 -21.094001 -9.424454 -8.183229 40.548542 8.820454 2.442000 -12.565867 6.292873 -4.040294 -11.523254 0.000004 -0.000002 -0.000000 0.000001 0.000000 
0.622412 83.788506 -0.100762 -1.854352 -18.367157 1.891452 8.230894 -1.052321 -1.412508 0.802690 -0.229509 -0.179170 0.803451 -0.225123 -0.179211 -0.554998 2.208094 0.561859 -39.042802 21.668347 8.373919 0.000000 -0.000000 0.000000 0.557945 9.577775 -12.003851 -21.745553 14.775494 -41.872731 0.000030 -64.722948 0.000037 20.523229 0.393988 20.374789 2.117895 6.816069 -46.669385 2.585425 4.857593 -56.027359 2.067628 4.466498 -49.663340 -0.000005 0.000003 0.000000 -28.747911 3.367881 -1.311866 2.437990 44.173518 1.005834 1.682017 22.923040 15.754610 -0.000001 0.000002 -0.000000 0.672814 -7.468904 9.530619 -20.744039 15.318630 50.142983 0.000010 57.498465 -0.000028 10.625994 -4.718754 -17.187133 -19.221889 2.842856 -2.163440 10.815259 -43.434105 -0.660941 2.467160 -17.981368 -17.425944 -0.000001 0.000003 -0.000000 1.296705 -5.467408 39.297483 2.055554 -3.864079 56.009938 0.553897 -2.204695 28.202444 0.000002 0.000002 0.000005 -12.411507 10.822543 3.509910 31.186405 2.873354 -4.254771 -15.213142 0.018069 0.348271 -2.479577 -0.000000 0.000001 0.000000 0.000000 0.000000 -21.077901 -9.028552 -9.256821 43.593413 7.174010 2.279407 -13.473515 4.614767 -2.795084 -16.719454 -0.000008 0.000002 0.000000 -0.000001 0.000000 
